<svg width="29" height="18" viewBox="0 0 29 18" fill="none" xmlns="http://www.w3.org/2000/svg">
<path d="M0.0914307 2.48964C0.0914307 1.63461 0.643326 1.17356 1.74712 1.1065L6.00052 1.13165C6.28599 1.13165 6.47629 1.25739 6.57145 1.50887C7.00916 2.76626 7.4992 3.85182 8.04159 4.76552C8.58397 5.67923 9.29287 6.73125 10.1683 7.92159C10.2444 8.07248 10.3681 8.14792 10.5394 8.14792C10.6726 8.14792 10.7773 8.08924 10.8534 7.97189L10.939 7.69526L10.9676 3.34467C10.9676 3.04289 10.8867 2.84171 10.7249 2.74112C10.5632 2.64052 10.2634 2.56508 9.82573 2.51478C9.48317 2.46449 9.3119 2.28007 9.3119 1.96153C9.3119 1.89447 9.32141 1.84417 9.34044 1.81064C9.74009 0.720899 10.8819 0.176027 12.766 0.176027L14.3646 0.150879C15.0878 0.150879 15.6872 0.310149 16.163 0.62869C16.6388 0.94723 16.8767 1.45019 16.8767 2.13757V7.84615C17.0099 7.92997 17.1336 7.97189 17.2478 7.97189C17.5332 7.97189 17.7806 7.821 17.99 7.51922C20.0834 4.93737 21.2157 3.21054 21.387 2.33875C21.387 2.32198 21.406 2.28007 21.4441 2.21301C21.5773 1.96153 21.7962 1.74358 22.1007 1.55916C22.4051 1.37474 22.6716 1.24901 22.9 1.18194C22.9761 1.14841 23.0617 1.13165 23.1569 1.13165H27.5816L27.867 1.1568C28.2476 1.1568 28.5426 1.31607 28.752 1.63461C28.8281 1.7352 28.8804 1.84417 28.909 1.96153C28.9375 2.07889 28.9565 2.19624 28.966 2.3136C28.9756 2.43096 28.9803 2.49802 28.9803 2.51478V2.69082C28.8471 3.3782 28.5093 4.11168 27.9669 4.89126C27.4245 5.67085 26.7347 6.51331 25.8973 7.41863C25.06 8.32396 24.5366 8.91912 24.3273 9.20413C24.156 9.40532 24.0704 9.58974 24.0704 9.75739C24.0704 9.89151 24.1465 10.0424 24.2987 10.2101L28.4665 14.8373C28.6949 15.1055 28.809 15.3989 28.809 15.7174C28.809 16.103 28.6378 16.4216 28.2952 16.6731C27.9527 16.9245 27.5435 17.0671 27.0677 17.1006L26.5824 17.1257H22.2434C22.2244 17.1257 22.1863 17.1299 22.1292 17.1383C22.0721 17.1467 22.034 17.1509 22.015 17.1509C21.5963 17.1509 21.2062 16.9916 20.8446 16.6731C20.7114 16.5389 19.8169 15.5498 18.1613 13.7056C18.0661 13.5883 17.9329 13.4793 17.7616 13.3787C17.6855 13.6469 17.5856 14.0325 17.4619 14.5355C17.3382 15.0385 17.2478 15.3989 17.1907 15.6169L17.105 16.0444C16.9147 16.6312 16.5151 16.9832 15.9061 17.1006L15.5065 17.1257H12.7089C11.1293 17.1257 9.55454 16.4887 7.98449 15.2145C6.41444 13.9403 5.0014 12.2931 3.74536 10.2729C2.48932 8.2527 1.31892 5.90137 0.234162 3.21893C0.139008 3.00098 0.0914307 2.75788 0.0914307 2.48964ZM17.2478 9.00295C16.8481 9.00295 16.4865 8.90655 16.163 8.71375C15.8395 8.52095 15.6777 8.25689 15.6777 7.92159V2.13757C15.6777 1.80226 15.5826 1.56335 15.3923 1.42085C15.202 1.27834 14.8689 1.20709 14.3931 1.20709L12.766 1.25739C11.9477 1.25739 11.3292 1.38313 10.9105 1.63461C11.7479 1.98668 12.1665 2.5567 12.1665 3.34467V7.7707C12.1285 8.18983 11.9382 8.53771 11.5956 8.81434C11.253 9.09097 10.8724 9.22928 10.4538 9.22928C9.88282 9.22928 9.44511 8.98618 9.14062 8.49999C7.65621 6.52169 6.55242 4.64398 5.82924 2.86686L5.57233 2.21301L1.77566 2.18786C1.52826 2.18786 1.39029 2.20044 1.36174 2.22558C1.3332 2.25073 1.31892 2.32198 1.31892 2.43934C1.31892 2.59023 1.33795 2.7495 1.37602 2.91715L1.97549 4.32544C3.57408 7.9635 5.31065 10.8304 7.18519 12.926C9.05974 15.0217 10.901 16.0695 12.7089 16.0695H15.5635C15.6777 16.0695 15.7634 16.0402 15.8205 15.9815C15.8776 15.9228 15.9251 15.8097 15.9632 15.642L16.0203 15.3905L16.5627 13.1775C16.7149 12.8757 16.8481 12.6745 16.9623 12.574C17.1717 12.3895 17.4191 12.2973 17.7045 12.2973C18.1613 12.2973 18.6275 12.5404 19.1033 13.0266L21.5297 15.7426C21.682 15.9605 21.8437 16.0695 22.015 16.0695H26.7252C27.2961 16.0695 27.5816 15.9438 27.5816 15.6923C27.5816 15.6085 27.553 15.5246 27.4959 15.4408L23.3567 10.889C23.0332 10.537 22.8714 10.1598 22.8714 9.75739C22.8714 9.35502 23.0237 8.96942 23.3281 8.60058C23.5755 8.26528 24.0561 7.70783 24.7697 6.92825C25.4834 6.14866 26.1067 5.41937 26.6395 4.74038C27.1724 4.06138 27.5245 3.44526 27.6957 2.892L27.7814 2.56508C27.7623 2.53155 27.7528 2.47706 27.7528 2.40162C27.7528 2.32617 27.7433 2.26331 27.7243 2.21301H23.2425C22.957 2.3136 22.7287 2.46449 22.5574 2.66567L22.3861 3.14348C21.9103 4.30029 20.6638 6.08579 18.6465 8.49999C18.2469 8.8353 17.7806 9.00295 17.2478 9.00295Z" fill="#666666"/>
</svg>
